<?xml version="1.0" encoding="UTF-8" standalone="no"?>
<svg
   xmlns:dc="http://purl.org/dc/elements/1.1/"
   xmlns:cc="http://creativecommons.org/ns#"
   xmlns:rdf="http://www.w3.org/1999/02/22-rdf-syntax-ns#"
   xmlns:svg="http://www.w3.org/2000/svg"
   xmlns="http://www.w3.org/2000/svg"
   width="283"
   height="74.268784"
   viewBox="0 0 283.5 73.786519"
   version="1.1"
   id="svg36">
  <metadata
     id="metadata42">
    <rdf:RDF>
      <cc:Work
         rdf:about="">
        <dc:format>image/svg+xml</dc:format>
        <dc:type
           rdf:resource="http://purl.org/dc/dcmitype/StillImage" />
        <dc:title></dc:title>
      </cc:Work>
    </rdf:RDF>
  </metadata>
  <defs
     id="defs40" />
  <style
     id="style2">.a{fill:#FFF;}</style>
  <path
     d="m 187.6,27.481979 c 0,4.8 -1.8,9.3 -5.2,12.7 -3.3,3.4 -7.9,5.3 -12.7,5.3 -4.7,0 -9.1,-1.9 -12.5,-5.3 -3.4,-3.3 -5.3,-7.8 -5.3,-12.7 0,-4.8 1.9,-9.3 5.3,-12.7 3.4,-3.4 7.8,-5.3000002 12.5,-5.3000002 4.7,0 9.3,1.9000002 12.7,5.3000002 3.4,3.3 5.2,7.8 5.2,12.7 m 9.8,0 c 0,-7.3 -2.8,-14.2 -8,-19.6000002 -5.3,-5.3 -12.3,-8.2 -19.6,-8.2 -7.3,0 -14.4,3 -19.5,8.2 -5.2,5.3000002 -8,12.3000002 -8,19.6000002 0,7.3 2.8,14.2 8,19.6 5.1,5.3 12.1,8.2 19.5,8.2 7.4,0 14.4,-2.9 19.6,-8.2 5.1,-5.4 8,-12.4 8,-19.6"
     id="path4" />
  <path
     d="M 84.7,32.081979 H 72.4 l 6.1,-16.1 z m 18.8,22.1 L 82.2,0.5819788 H 74.8 L 53.6,54.181979 H 64 l 5,-13 h 19.4 l 4.9,13 z"
     id="path6" />
  <polygon
     points="283.5,54.5 283.5,44.9 259.6,44.9 259.6,32.6 280.9,32.6 280.9,22.9 259.6,22.9 259.6,10.6 283.4,10.6 283.4,1 249.9,1 249.9,54.5 "
     id="polygon8"
     transform="translate(0,-0.3180212)" />
  <path
     d="m 241.7,18.081979 c 0,-4.5 -1.6,-8.8000002 -4.5,-12.0000002 -3.3,-3.6 -7.9,-5.5 -13.4,-5.5 H 204 V 54.181979 h 9.5 v -43.9 h 10.3 c 5.7,0 8.2,4 8.2,7.8 0,5.4 -4.3,7.9 -8.2,7.9 h -6.4 v 9.1 l 15.9,19.1 h 12.5 l -16.6,-19.7 c 8.6,-2.3 12.5,-9.7 12.5,-16.4"
     id="path10" />
  <polygon
     points="119,1 109.1,1 109.1,54.5 142.9,54.5 142.9,44.9 119,44.9 "
     id="polygon12"
     transform="translate(0,-0.3180212)" />
  <path
     d="m 42.6,17.781979 h 10.8 c -1.4,-3.7 -3.5,-7.1 -6.3,-10.0000002 -5.3,-5.2 -12.2,-8.1 -19.6,-8.1 -7.3,0 -14.4,3 -19.5,8.2 C 2.8,13.181979 0,20.181979 0,27.481979 c 0,7.3 2.8,14.2 8,19.6 5.1,5.3 12.1,8.2 19.5,8.2 7.4,0 14.4,-2.9 19.6,-8.2 5.2,-5.3 8,-12.3 8,-19.6 0,-0.1 0,-0.2 0,-0.3 v -0.2 -0.4 H 26.4 v 9.1 h 17 c -0.8,1.6 -1.9,3.1 -3.2,4.5 -3.3,3.4 -7.9,5.3 -12.7,5.3 -4.7,0 -9.1,-1.9 -12.5,-5.3 -3.4,-3.3 -5.3,-7.8 -5.3,-12.7 0,-4.8 1.9,-9.3 5.3,-12.7 3.4,-3.4 7.8,-5.3000002 12.5,-5.3000002 4.7,0 9.3,1.9000002 12.7,5.3000002 0.9,0.9 1.7,1.9 2.4,3"
     id="path14" />
  <path
     d="m 60.4,64.581979 v 9.4 h -1.8 v -9.4 z"
     id="path16" />
  <path
     d="m 80.5,64.581979 v 9.4 h -1.6 l -3.4,-5.7 v 5.7 h -1.8 v -9.4 h 1.6 l 3.4,5.8 -0.1,-5.8 z"
     id="path18" />
  <path
     d="m 99.9,66.181979 h -2.4 v 7.8 h -1.8 v -7.8 h -2.4 v -1.6 h 6.5 v 1.6 z"
     id="path20" />
  <path
     d="m 118.5,72.381979 v 1.6 h -5.7 v -9.4 h 5.6 v 1.6 h -3.8 v 2.2 h 3.2 v 1.6 h -3.2 v 2.4 z"
     id="path22" />
  <path
     d="m 138.7,72.581979 v 1.4 c -1.5,0.2 -2.3,0.1 -3.1,-1.4 l -1,-2.1 c -0.3,0 -0.9,0 -1.3,-0.2 v 3.6 h -1.8 v -9.4 h 3.6 c 1.9,0 3.1,1.2 3.1,2.7 v 0.5 c 0,1.1 -0.7,2.1 -1.8,2.5 l 1,1.9 c 0.3,0.7 0.9,0.6 1.3,0.5 z m -5.4,-3.8 c 0.5,0.1 1.2,0.2 1.7,0.2 0.9,0 1.4,-0.6 1.4,-1.4 v -0.1 c 0,-0.8 -0.5,-1.3 -1.3,-1.3 h -1.8 z"
     id="path24" />
  <path
     d="m 158.4,64.581979 -3.1,9.4 h -1.5 l -3.2,-9.4 h 1.9 l 2.1,7.2 2,-7.2 z"
     id="path26" />
  <path
     d="m 173,64.581979 v 9.4 h -1.8 v -9.4 z"
     id="path28" />
  <path
     d="m 192,72.381979 v 1.6 h -5.7 v -9.4 h 5.6 v 1.6 h -3.8 v 2.2 h 3.2 v 1.6 h -3.2 v 2.4 z"
     id="path30" />
  <path
     d="m 215.8,64.581979 -2.9,9.4 h -1.4 l -1.2,-3.3 -1.2,3.3 h -1.4 l -2.9,-9.4 h 1.8 l 1.8,7.2 1.1,-3.1 -1.6,-4.1 h 1.6 l 0.8,2.3 0.8,-2.3 h 1.6 l -1.5,4.1 1.1,3.2 1.8,-7.2 h 1.7 z"
     id="path32" />
  <path
     d="m 231.3,72.481979 c 1.1,0 1.7,-0.5 1.7,-1.2 0,-0.8 -0.5,-1.1 -1.7,-1.3 -1.6,-0.2 -2.8,-1 -2.8,-2.9 0,-1.6 1.1,-2.7 3,-2.7 1.2,0 2,0.3 2.8,0.9 l -0.7,1.3 c -0.7,-0.4 -1.3,-0.6 -2.1,-0.6 -0.9,0 -1.3,0.5 -1.3,1.1 0,0.9 0.6,1.2 1.6,1.3 1.5,0.2 2.9,0.8 2.9,2.8 0,1.7 -1.1,2.9 -3.4,2.9 -1.2,0 -2.3,-0.4 -3.1,-0.9 l 0.7,-1.3 c 0.7,0.4 1.5,0.6 2.4,0.6 z"
     id="path34" />
</svg>
