<?xml version="1.0" encoding="utf-8"?>
<!-- Generator: Adobe Illustrator 19.0.0, SVG Export Plug-In . SVG Version: 6.00 Build 0)  -->
<svg version="1.1" id="Capa_1" xmlns="http://www.w3.org/2000/svg" xmlns:xlink="http://www.w3.org/1999/xlink" x="0px" y="0px"
	 viewBox="0 0 230.1 84.4" style="enable-background:new 0 0 230.1 84.4;" xml:space="preserve">
<style type="text/css">
	.st0{fill:#009FE3;}
</style>
<g>
	<g>
		<circle class="st0" cx="13.8" cy="6.8" r="6.8"/>
		<path class="st0" d="M77,21.8L58.2,49.1c-2.1-1.8-4.7-3.2-7.7-4.6c-2.2-1-9.2-3.7-10.5-5.9c-0.4-0.6-0.5-1.4-0.5-2.2
			c0-2.5,2.3-4.2,4.7-4.2c3.5,0,4.5,2.2,4.9,5.2h13.5c-0.1-4.2-0.8-7.1-3.5-10.5c-3.4-4.1-9.2-6-14.4-6c-7,0-14.3,3.5-17.3,9.6
			c0-7.5-6.1-13.6-13.6-13.6v58.3h13.6v-7.2c2.1,3.6,5.5,6,9.7,7.2h19.4L65,62h14.4l0,0v0h0v5.2c0.4,7.1,5.3,12.7,12.5,12.9h0.4
			V21.8H77z M38.7,57.4H27.4V42.6c2.2,4.4,6.7,7.1,11.7,9.1c1.6,0.6,3.2,1.3,4.8,2c2.8,1.2,5.7,2.4,5.7,5.8c0,2.9-2.4,5.1-5.2,5.1
			C40.3,64.7,38.7,60.9,38.7,57.4z M79.4,52.4h-7.9l7.9-12.5V52.4z"/>
	</g>
	<g>
		<g>
			<path class="st0" d="M103.6,36.4V21.8h2.1v14.6H103.6z"/>
			<path class="st0" d="M116.1,36.4v-5.9c0-1.8-0.6-3.4-2.7-3.4c-2,0-2.9,1.6-2.9,3.4v5.9h-2V25.5h1.9v1.2h0c0.8-1,1.9-1.5,3.2-1.5
				c1.6,0,3,0.6,3.9,2c0.5,0.8,0.7,1.8,0.7,2.8v6.5H116.1z"/>
			<path class="st0" d="M123.1,27.3v9h-2v-9h-1.5v-1.9h1.5v-3.7h2v3.7h1.8v1.9H123.1z"/>
			<path class="st0" d="M136.8,31.8h-9c0.4,1.7,1.8,3,3.6,3c1.3,0,2.5-0.7,3.1-1.8h2c-0.8,2.2-2.9,3.7-5.2,3.7
				c-3.1,0-5.6-2.7-5.6-5.8c0-3.2,2.4-5.7,5.6-5.7c3.1,0,5.6,2.5,5.6,5.6C136.8,31.1,136.8,31.5,136.8,31.8z M131.3,27.1
				c-1.8,0-3.4,1.4-3.5,3.2h7.1C134.7,28.5,133,27.1,131.3,27.1z"/>
			<path class="st0" d="M142.1,27.7c-1,0.5-1.2,1.8-1.2,2.7v6h-2V25.5h1.9v1h0c0.7-0.9,1.7-1.2,2.8-1.3v2.1
				C143.2,27.3,142.5,27.5,142.1,27.7z"/>
			<path class="st0" d="M153.2,36.4v-5.9c0-1.8-0.6-3.4-2.7-3.4c-2,0-2.9,1.6-2.9,3.4v5.9h-2V25.5h1.9v1.2h0c0.8-1,1.9-1.5,3.2-1.5
				c1.6,0,3,0.6,3.9,2c0.5,0.8,0.7,1.8,0.7,2.8v6.5H153.2z"/>
			<path class="st0" d="M166.8,36.4v-1.7h0c-0.8,1.3-2.2,2-3.7,2c-3.3,0-5.8-2.4-5.8-5.7c0-3.3,2.5-5.8,5.8-5.8
				c1.5,0,2.9,0.6,3.7,1.8h0v-1.5h2v10.9H166.8z M163.1,27.1c-2.2,0-3.7,1.8-3.7,3.9c0,2,1.6,3.8,3.7,3.8c2.1,0,3.8-1.7,3.8-3.8
				C166.9,28.8,165.3,27.1,163.1,27.1z"/>
			<path class="st0" d="M173.9,27.3v9h-2v-9h-1.5v-1.9h1.5v-3.7h2v3.7h1.8v1.9H173.9z"/>
			<path class="st0" d="M177.1,24.2v-2.4h2v2.4H177.1z M177.1,36.4V25.5h2v10.9H177.1z"/>
			<path class="st0" d="M187.1,36.7c-3.2,0-5.9-2.6-5.9-5.8c0-3.2,2.7-5.7,5.9-5.7c3.2,0,5.9,2.5,5.9,5.7
				C193,34,190.4,36.7,187.1,36.7z M187.1,27.1c-2.1,0-3.8,1.7-3.8,3.9c0,2.1,1.7,3.9,3.8,3.9c2.1,0,3.8-1.8,3.8-3.9
				C190.9,28.8,189.2,27.1,187.1,27.1z"/>
			<path class="st0" d="M202.7,36.4v-5.9c0-1.8-0.6-3.4-2.7-3.4c-2,0-2.9,1.6-2.9,3.4v5.9h-2V25.5h1.9v1.2h0c0.8-1,1.9-1.5,3.2-1.5
				c1.6,0,3,0.6,3.9,2c0.5,0.8,0.7,1.8,0.7,2.8v6.5H202.7z"/>
			<path class="st0" d="M216.3,36.4v-1.7h0c-0.8,1.3-2.2,2-3.7,2c-3.3,0-5.8-2.4-5.8-5.7c0-3.3,2.5-5.8,5.8-5.8
				c1.5,0,2.9,0.6,3.7,1.8h0v-1.5h2v10.9H216.3z M212.6,27.1c-2.2,0-3.7,1.8-3.7,3.9c0,2,1.6,3.8,3.7,3.8c2.1,0,3.8-1.7,3.8-3.8
				C216.4,28.8,214.8,27.1,212.6,27.1z"/>
			<path class="st0" d="M221.1,36.4V21.8h2v14.6H221.1z"/>
			<path class="st0" d="M107,58.4c-2.7,0-4.5-2-4.5-4.6h2.1c0,1.4,0.8,2.6,2.4,2.6c1.5,0,2.3-1,2.3-2.5c0-1.6-1.1-1.9-2.3-2.4
				c-2.3-0.9-4.1-1.5-4.1-4.4c0-2.3,1.9-4,4.1-4c2.4,0,4.2,1.6,4.2,4.1H109c0-1.3-0.8-2.1-2-2.1c-1.1,0-2,0.9-2,2
				c0,3.1,6.4,1.2,6.4,6.8C111.4,56.6,109.6,58.4,107,58.4z"/>
			<path class="st0" d="M119.2,58.4c-3.2,0-5.9-2.6-5.9-5.8c0-3.2,2.7-5.7,5.9-5.7c3.2,0,5.9,2.5,5.9,5.7
				C125.1,55.7,122.5,58.4,119.2,58.4z M119.2,48.8c-2.1,0-3.8,1.7-3.8,3.9c0,2.1,1.7,3.9,3.8,3.9c2.1,0,3.8-1.8,3.8-3.9
				C123,50.5,121.3,48.8,119.2,48.8z"/>
			<path class="st0" d="M132.2,58.4c-3.2,0-5.6-2.6-5.6-5.8c0-3.2,2.4-5.7,5.6-5.7c2.3,0,4.7,1.6,5.4,3.9h-2.3c-0.6-1.3-1.6-2-3.1-2
				c-2.2,0-3.6,1.7-3.6,3.9c0,2.1,1.4,3.9,3.5,3.9c1.4,0,2.5-0.7,3.1-2h2.3C136.7,56.8,134.7,58.4,132.2,58.4z"/>
			<path class="st0" d="M139.5,45.9v-2.4h2v2.4H139.5z M139.5,58.1V47.2h2v10.9H139.5z"/>
			<path class="st0" d="M149.5,58.4c-3.2,0-5.9-2.6-5.9-5.8c0-3.2,2.7-5.7,5.9-5.7c3.2,0,5.9,2.5,5.9,5.7
				C155.4,55.7,152.8,58.4,149.5,58.4z M149.5,48.8c-2.1,0-3.8,1.7-3.8,3.9c0,2.1,1.7,3.9,3.8,3.9c2.1,0,3.8-1.8,3.8-3.9
				C153.3,50.5,151.6,48.8,149.5,48.8z"/>
			<path class="st0" d="M157.5,58.1V43.5h2v14.6H157.5z"/>
			<path class="st0" d="M167.5,58.4c-3.2,0-5.9-2.6-5.9-5.8c0-3.2,2.7-5.7,5.9-5.7c3.2,0,5.9,2.5,5.9,5.7
				C173.4,55.7,170.8,58.4,167.5,58.4z M167.5,48.8c-2.1,0-3.8,1.7-3.8,3.9c0,2.1,1.7,3.9,3.8,3.9c2.1,0,3.8-1.8,3.8-3.9
				C171.3,50.5,169.6,48.8,167.5,48.8z"/>
			<path class="st0" d="M180.7,62.4c-2.4,0-4.4-1.2-5.4-3.4h2.3c0.7,1.1,1.8,1.6,3.1,1.6c2.5,0,3.8-1.4,3.8-3.9h0
				c-0.9,1.2-2.3,1.7-3.8,1.7c-3.1,0-5.8-2.6-5.8-5.8c0-0.8,0.2-1.7,0.6-2.4c1-2.1,3-3.3,5.3-3.3c1.3,0,2.9,0.5,3.8,1.6v-1.3h2v9.4
				C186.6,60.3,184.3,62.4,180.7,62.4z M182.2,49.1c-0.5-0.2-0.9-0.3-1.4-0.3c-2.1,0-3.8,1.8-3.8,3.9c0,2.1,1.7,3.9,3.8,3.9
				c1.6,0,2.8-0.9,3.5-2.3c0.2-0.5,0.4-1,0.4-1.5C184.5,51,183.7,49.7,182.2,49.1z"/>
			<path class="st0" d="M189.2,45.9v-2.4h2v2.4H189.2z M189.2,58.1V47.2h2v10.9H189.2z"/>
			<path class="st0" d="M198.9,58.4c-3.2,0-5.6-2.6-5.6-5.8c0-3.2,2.4-5.7,5.6-5.7c2.3,0,4.7,1.6,5.4,3.9H202c-0.6-1.3-1.6-2-3.1-2
				c-2.2,0-3.6,1.7-3.6,3.9c0,2.1,1.4,3.9,3.5,3.9c1.4,0,2.5-0.7,3.1-2h2.3C203.5,56.8,201.4,58.4,198.9,58.4z"/>
			<path class="st0" d="M215.2,58.1v-1.7h0c-0.8,1.3-2.2,2-3.7,2c-3.3,0-5.8-2.4-5.8-5.7c0-3.3,2.5-5.8,5.8-5.8
				c1.5,0,2.9,0.6,3.7,1.8h0v-1.5h2v10.9H215.2z M211.4,48.8c-2.2,0-3.7,1.8-3.7,3.9c0,2,1.6,3.8,3.7,3.8c2.1,0,3.8-1.7,3.8-3.8
				C215.2,50.5,213.7,48.8,211.4,48.8z"/>
			<path class="st0" d="M220,58.1V43.5h2v14.6H220z"/>
			<path class="st0" d="M113.1,79.8l-1.6-4.3h-5.2l-1.6,4.3h-2.2l5.5-14.6h1.9l5.5,14.6H113.1z M108.9,68L108.9,68l-1.9,5.6h3.8
				L108.9,68z"/>
			<path class="st0" d="M119.8,80.1c-0.5,0-0.9-0.1-1.4-0.3c-1.6-0.6-2.5-1.9-2.5-3.6h2c0.1,1.1,0.6,2,1.9,2c0.9,0,1.6-0.6,1.6-1.5
				c0-2.3-5-1.1-5-5c0-1.9,1.6-3.2,3.4-3.2c1.9,0,3.3,1.3,3.3,3.2h-2c-0.1-0.8-0.6-1.3-1.4-1.3c-0.7,0-1.3,0.4-1.3,1.2
				c0,1,0.9,1.2,1.7,1.4c1.8,0.6,3.3,1.4,3.3,3.5C123.5,78.7,121.9,80.1,119.8,80.1z"/>
			<path class="st0" d="M128.2,80.1c-0.5,0-0.9-0.1-1.4-0.3c-1.6-0.6-2.5-1.9-2.5-3.6h2c0.1,1.1,0.6,2,1.9,2c0.9,0,1.6-0.6,1.6-1.5
				c0-2.3-5-1.1-5-5c0-1.9,1.6-3.2,3.4-3.2c1.9,0,3.3,1.3,3.3,3.2h-2c-0.1-0.8-0.6-1.3-1.4-1.3c-0.7,0-1.3,0.4-1.3,1.2
				c0,1,0.9,1.2,1.7,1.4c1.8,0.6,3.3,1.4,3.3,3.5C131.9,78.7,130.3,80.1,128.2,80.1z"/>
			<path class="st0" d="M138.9,80.1c-3.2,0-5.9-2.6-5.9-5.8c0-3.2,2.7-5.7,5.9-5.7c3.2,0,5.9,2.5,5.9,5.7
				C144.8,77.4,142.2,80.1,138.9,80.1z M138.9,70.5c-2.1,0-3.8,1.7-3.8,3.9c0,2.1,1.7,3.9,3.8,3.9c2.1,0,3.8-1.8,3.8-3.9
				C142.8,72.2,141.1,70.5,138.9,70.5z"/>
			<path class="st0" d="M151.9,80.1c-3.2,0-5.6-2.6-5.6-5.8c0-3.2,2.4-5.7,5.6-5.7c2.3,0,4.7,1.6,5.4,3.9H155c-0.6-1.3-1.6-2-3.1-2
				c-2.2,0-3.6,1.7-3.6,3.9c0,2.1,1.4,3.9,3.5,3.9c1.4,0,2.5-0.7,3.1-2h2.3C156.5,78.6,154.4,80.1,151.9,80.1z"/>
			<path class="st0" d="M159.2,67.6v-2.4h2v2.4H159.2z M159.2,79.8V68.9h2v10.9H159.2z"/>
			<path class="st0" d="M172.9,79.8v-1.7h0c-0.8,1.3-2.2,2-3.7,2c-3.3,0-5.8-2.4-5.8-5.7c0-3.3,2.5-5.8,5.8-5.8
				c1.5,0,2.9,0.6,3.7,1.8h0v-1.5h2v10.9H172.9z M169.2,70.5c-2.2,0-3.7,1.8-3.7,3.9c0,2,1.6,3.8,3.7,3.8c2.1,0,3.8-1.7,3.8-3.8
				C172.9,72.2,171.4,70.5,169.2,70.5z"/>
			<path class="st0" d="M180,70.8v9h-2v-9h-1.5v-1.9h1.5v-3.7h2v3.7h1.8v1.9H180z"/>
			<path class="st0" d="M183.1,67.6v-2.4h2v2.4H183.1z M183.1,79.8V68.9h2v10.9H183.1z"/>
			<path class="st0" d="M193.1,80.1c-3.2,0-5.9-2.6-5.9-5.8c0-3.2,2.7-5.7,5.9-5.7c3.2,0,5.9,2.5,5.9,5.7
				C199,77.4,196.4,80.1,193.1,80.1z M193.1,70.5c-2.1,0-3.8,1.7-3.8,3.9c0,2.1,1.7,3.9,3.8,3.9c2.1,0,3.8-1.8,3.8-3.9
				C197,72.2,195.3,70.5,193.1,70.5z"/>
			<path class="st0" d="M208.7,79.8v-5.9c0-1.9-0.6-3.4-2.7-3.4c-2,0-2.9,1.6-2.9,3.4v5.9h-2V68.9h1.9v1.2h0c0.8-1,1.9-1.5,3.2-1.5
				c1.6,0,3,0.6,3.9,2c0.5,0.8,0.7,1.8,0.7,2.8v6.5H208.7z"/>
		</g>
	</g>
</g>
</svg>
