<?xml version="1.0" encoding="utf-8"?>
<!-- Generator: Adobe Illustrator 21.0.0, SVG Export Plug-In . SVG Version: 6.00 Build 0)  -->
<svg version="1.1" id="Layer_1" xmlns="http://www.w3.org/2000/svg" xmlns:xlink="http://www.w3.org/1999/xlink" x="0px" y="0px"
	 viewBox="0 0 231 72" style="enable-background:new 0 0 231 72;" xml:space="preserve">
<style type="text/css">
	.st0{fill:#FFFFFF;}
</style>
<g>
	<path class="st0" d="M71,22.5v-9.7c0-0.6-0.1-1-0.2-1.2c-0.1-0.3-0.3-0.4-0.6-0.6c-0.3-0.1-0.7-0.2-1.2-0.3c-0.1,0-0.1,0-0.2-0.1
		c-0.1-0.1-0.1-0.1-0.1-0.2c0,0,0-0.1,0.1-0.1c0,0,0.1-0.1,0.2-0.1h0.4c0.3,0,0.8,0,1.5,0.1c0.7,0,1.2,0.1,1.5,0.1h0.3
		c-0.1,0,0.2,0,0.7,0c0.5,0,1,0,1.3,0c0.7,0,1,0,1.1,0.1v0.1c0,0.1-0.1,0.1-0.2,0.2c-0.1,0-0.2,0.1-0.3,0.1c-0.7,0-1.1,0.2-1.4,0.5
		c-0.3,0.3-0.4,0.8-0.4,1.4c0,0,0,0,0,0.1c0,0,0,0.1,0,0.1V21c0,0.8,0,1.4-0.1,1.9s-0.2,1-0.5,1.5s-0.6,0.9-1.1,1.3
		c-0.8,0.6-2,0.9-3.5,0.9c-0.7,0-1.3-0.1-1.9-0.2c-0.5-0.1-0.9-0.4-1.2-0.7c-0.3-0.3-0.5-0.7-0.5-1c0-0.5,0.2-0.7,0.6-0.8
		c0,0,0.1,0,0.2,0c0.1,0,0.2,0,0.2,0c0.3,0,0.5,0.1,0.6,0.3c0.1,0.2,0.3,0.5,0.5,0.8c0.2,0.4,0.3,0.6,0.5,0.8
		c0.3,0.3,0.7,0.4,1.2,0.4c0.6,0,1.2-0.2,1.6-0.5c0.4-0.3,0.6-0.6,0.7-1.1c0.1-0.5,0.2-1,0.2-1.6V22.5z"/>
	<path class="st0" d="M79,18.2c0-1.5,0.4-3,1.2-4.2s1.9-2.3,3.2-3c1.4-0.7,2.8-1.1,4.3-1.1c0.1,0,0.3,0,0.5,0c0.2,0,0.4,0,0.5,0
		c1.1,0.1,2.1,0.4,3,0.8c0.9,0.5,1.7,1,2.4,1.8c0.7,0.7,1.2,1.6,1.6,2.5c0.4,0.9,0.6,1.9,0.6,3v0.1c0,1.6-0.4,3-1.2,4.3
		c-0.8,1.3-1.8,2.2-3.1,2.9c-1.3,0.7-2.8,1.1-4.3,1.1c-1.5,0-2.9-0.3-4.3-1c-1.3-0.7-2.4-1.7-3.2-2.9c-0.8-1.2-1.2-2.6-1.2-4.2
		L79,18.2z M81.9,18.1c0,1.3,0.2,2.5,0.6,3.7c0.4,1.2,1,2.2,1.9,3c0.9,0.8,1.9,1.2,3.2,1.2c1,0,1.9-0.3,2.7-0.8
		c0.8-0.5,1.5-1.2,2-2.1c0.7-1.3,1.1-2.9,1.1-4.9c0-1.3-0.2-2.5-0.6-3.7c-0.4-1.2-1-2.1-1.8-2.9c-0.8-0.8-1.9-1.2-3.2-1.2h-0.2
		c-1,0-1.8,0.2-2.5,0.7c-0.7,0.5-1.3,1.1-1.8,1.8c-0.5,0.8-0.8,1.6-1,2.5S81.9,17.2,81.9,18.1z"/>
	<path class="st0" d="M101.9,12.8c0-0.6-0.1-1-0.2-1.2c-0.1-0.3-0.3-0.5-0.5-0.6c-0.3-0.1-0.7-0.2-1.2-0.3c-0.1,0-0.1,0-0.2-0.1
		c-0.1-0.1-0.1-0.1-0.1-0.2c0,0,0-0.1,0.1-0.1c0,0,0.1-0.1,0.2-0.1h0.4c0.3,0,0.8,0,1.5,0.1s1.2,0.1,1.4,0.1h0.3c-0.1,0,0.2,0,0.7,0
		c0.5,0,1,0,1.4,0c0.7,0,1,0,1.1,0.1v0.1c0,0.1-0.1,0.1-0.2,0.2c-0.1,0-0.2,0.1-0.3,0.1c-0.5,0.1-0.9,0.1-1.1,0.3
		c-0.3,0.1-0.4,0.4-0.5,0.6c-0.1,0.3-0.2,0.7-0.2,1.2v4.7h8.6v-4.7c0-0.5-0.1-1-0.2-1.2c-0.1-0.3-0.3-0.5-0.6-0.6
		c-0.3-0.1-0.7-0.2-1.2-0.3c-0.1,0-0.1,0-0.2-0.1c-0.1-0.1-0.1-0.1-0.1-0.2c0,0,0-0.1,0.1-0.2h0.4c0.4,0,1,0,1.8,0.1
		s1.2,0.1,1.2,0.1c0,0,0.4,0,1.1-0.1c0.7,0,1.2-0.1,1.7-0.1c0.2,0,0.4,0,0.7,0.1c0,0,0,0.1,0,0.2c0,0.2-0.1,0.2-0.3,0.2
		c-0.6,0.1-1,0.2-1.2,0.3c-0.3,0.1-0.4,0.3-0.6,0.6c-0.1,0.3-0.2,0.7-0.2,1.2v10.6c0,0.5,0,0.9,0.1,1.2c0.1,0.3,0.2,0.4,0.3,0.6
		c0.1,0.1,0.4,0.2,0.6,0.3c0.3,0.1,0.6,0.1,1.1,0.2c0.1,0,0.1,0.1,0.1,0.3c0,0.1-0.1,0.2-0.2,0.2c0,0-0.1,0-0.2,0
		c-0.1,0-0.2,0-0.3,0c-0.3,0-0.8,0-1.5-0.1c-0.7,0-1.1-0.1-1.2-0.1c-0.2,0-0.6,0-1.4,0.1c-0.8,0-1.3,0.1-1.6,0.1c0,0-0.1,0-0.2,0
		c-0.1,0-0.1,0-0.1,0c-0.1,0-0.2,0-0.2-0.1c-0.1-0.1-0.1-0.1-0.1-0.1s0-0.1,0.1-0.1c0.1-0.1,0.1-0.1,0.2-0.1c0.6-0.1,1-0.2,1.2-0.3
		c0.3-0.1,0.5-0.4,0.6-0.6c0.1-0.3,0.2-0.7,0.2-1.3v-5.1h-8.6v5.1c0,0.5,0,0.9,0.1,1.2c0.1,0.3,0.2,0.5,0.3,0.6
		c0.2,0.1,0.4,0.2,0.6,0.3c0.3,0.1,0.6,0.1,1.1,0.2c0.1,0,0.1,0.1,0.1,0.3c0,0.1-0.1,0.2-0.2,0.2c0,0-0.1,0-0.2,0
		c-0.1,0-0.2,0-0.3,0c-0.3,0-0.8,0-1.5-0.1c-0.7,0-1.1-0.1-1.3-0.1c-0.1,0-0.6,0-1.3,0.1c-0.8,0-1.3,0.1-1.6,0.1c0,0-0.1,0-0.2,0
		c-0.1,0-0.1,0-0.1,0c-0.2,0-0.3-0.1-0.3-0.2c0-0.1,0-0.1,0.1-0.2c0.1-0.1,0.1-0.1,0.2-0.1c0.6-0.1,1-0.2,1.3-0.3
		c0.3-0.1,0.5-0.3,0.6-0.6c0.1-0.3,0.2-0.7,0.2-1.3V12.8z"/>
	<path class="st0" d="M124.9,23c0,0.7,0.1,1.2,0.2,1.6s0.3,0.6,0.6,0.7c0.2,0.1,0.5,0.2,0.8,0.2c0.3,0,0.5,0.1,0.6,0.2
		c0,0,0.1,0.1,0.1,0.2c0,0.1,0,0.2-0.1,0.2c-0.1,0-0.3,0.1-0.6,0.1c-0.2,0-0.5,0-1,0s-0.7,0-0.8,0c-0.2,0-0.4,0-0.8,0
		c-0.4,0-0.7,0-0.9,0c-0.1,0-0.2,0-0.3,0c-0.1,0-0.2,0-0.3,0c-0.1,0-0.1,0-0.2-0.1c-0.1-0.1-0.1-0.1-0.1-0.1c0,0,0.1-0.1,0.2-0.2
		c0.1-0.1,0.3-0.1,0.5-0.1c0.2,0,0.4-0.1,0.6-0.1c0.2-0.1,0.3-0.2,0.5-0.4c0.3-0.3,0.4-0.8,0.4-1.7V12c-0.5-0.8-1.1-1.2-1.8-1.2
		c-0.1,0-0.3,0-0.5-0.1c-0.2-0.1-0.3-0.1-0.3-0.2c0-0.1,0.1-0.2,0.3-0.3c0,0,0.1,0,0.3,0c0.1,0,0.2,0,0.3,0c0.3,0,0.6,0,1,0
		c0.4,0,0.7,0,0.9,0h0.9c0.5,0,0.8,0.1,1,0.4l9.7,12.2v-9.8c0-1.6-0.6-2.4-1.9-2.4h-0.1c-0.1,0-0.1,0-0.2-0.1
		c-0.1-0.1-0.1-0.1-0.1-0.1l0.1-0.1c0-0.1,0.3-0.1,0.7-0.1c0.3,0,0.7,0,1.2,0c0.5,0,0.7,0,0.7,0c0.1,0,0.4,0,0.8,0
		c0.5,0,0.8,0,1.1,0h0.5c0.1,0,0.1,0.1,0.1,0.3c0,0.1,0,0.2-0.1,0.2c-0.2,0.1-0.4,0.1-0.6,0.2c-0.3,0-0.5,0.1-0.6,0.2
		c-0.2,0.1-0.3,0.2-0.4,0.3c-0.3,0.3-0.4,0.8-0.4,1.5c0,0,0,0.1,0,0.2c0,0.1,0,0.1,0,0.2v12.7c0,0.5-0.1,0.7-0.4,0.7
		c-0.2,0-0.5-0.2-0.8-0.6l-10.6-13.1V23z"/>
	<path class="st0" d="M72.8,46.2c0,0,0,0.1,0,0.1c0,0.1,0,0.1,0,0.1c0,0.5,0,0.8,0.2,1.1c0.1,0.2,0.2,0.4,0.4,0.5
		c0.2,0.1,0.4,0.2,0.7,0.2c0.3,0,0.6,0.1,1.1,0.2c0.1,0,0.2,0.1,0.2,0.2c0,0.1,0,0.2-0.1,0.2c0,0-0.1,0-0.2,0c-0.1,0-0.2,0-0.3,0
		c-0.3,0-0.7,0-1.4-0.1c-0.6,0-1-0.1-1-0.1c-0.4,0-1,0-1.8,0c-0.8,0-1.3,0-1.7,0c0,0-0.1,0-0.2,0c-0.1,0-0.2,0-0.2,0
		c0,0-0.1,0-0.1,0c-0.1,0-0.1,0-0.1,0c-0.2,0-0.3-0.1-0.3-0.2c0-0.1,0-0.1,0.1-0.2c0.1-0.1,0.2-0.1,0.2-0.1c0.6-0.1,1-0.2,1.3-0.3
		c0.3-0.1,0.5-0.3,0.7-0.6c0.1-0.3,0.2-0.7,0.2-1.3V34.4c0-0.5-0.4-0.8-1.2-0.8h-1.8c-1.2,0-2.1,0.1-2.6,0.4
		c-0.3,0.2-0.5,0.4-0.6,0.6c-0.1,0.2-0.2,0.6-0.3,1.1c-0.1,0.5-0.1,0.7-0.1,0.7c0,0,0,0.1-0.1,0.1c0,0-0.1,0-0.1,0
		c-0.1,0-0.2-0.1-0.2-0.4v-2.7c0-0.4,0.2-0.6,0.7-0.6c0.5,0,0.8,0,1,0.1c1.4,0.1,3.6,0.1,6.5,0.1c2.9,0,5.1,0,6.6-0.1
		c0.2,0,0.6-0.1,1.1-0.1c0.5,0,0.7,0.2,0.7,0.6v2.7c0,0.1,0,0.2-0.1,0.3c-0.1,0.1-0.1,0.1-0.2,0.1c-0.1,0-0.1-0.1-0.1-0.3
		c-0.1-0.6-0.2-1.1-0.3-1.4c-0.1-0.3-0.4-0.6-0.7-0.8c-0.5-0.3-1.5-0.5-2.9-0.5c-0.2,0-0.5,0-0.9,0c-0.4,0-0.7,0-0.8,0
		c-0.3,0-0.6,0.1-0.7,0.2c-0.2,0.1-0.2,0.3-0.2,0.6V46.2z"/>
	<path class="st0" d="M88.3,44.8c0,0,0,0.1,0,0.1c0,0.1,0,0.1,0,0.1c0,0.9,0.1,1.7,0.3,2.2c0.2,0.5,0.8,0.8,1.6,0.9
		c0.8,0.1,1.4,0.2,1.9,0.2c0.7,0,1.4-0.1,2-0.3c0.6-0.2,1.1-0.5,1.4-0.9c0.2-0.3,0.4-0.7,0.6-1.2c0.2-0.5,0.3-0.8,0.4-0.8h0.1
		c0.1,0.1,0.2,0.4,0.2,1.1c0,0.3,0,0.8-0.1,1.3s-0.1,0.8-0.1,0.8c0,0.2,0,0.3-0.1,0.4c-0.1,0.1-0.2,0.1-0.4,0.1c-0.4,0-0.8,0-1-0.1
		c-0.6,0-1.4,0-2.6,0c-1.2,0-2,0-2.6,0c-2.1,0-3.6,0-4.7,0.1c-0.1,0-0.3,0-0.6,0s-0.5,0-0.6,0c-0.1,0-0.1,0-0.2,0
		c-0.1,0-0.1,0-0.2,0c-0.1,0-0.1-0.1-0.1-0.2c0-0.1,0-0.2,0.1-0.3c0.1-0.1,0.3-0.1,0.6-0.1c0.3,0,0.5-0.1,0.7-0.1
		c0.4-0.2,0.6-0.4,0.7-0.7c0.1-0.3,0.1-0.8,0.1-1.3V35.6c0-0.5-0.1-1-0.2-1.3c-0.1-0.3-0.4-0.5-0.8-0.6c-0.1,0-0.2,0-0.6-0.1
		c-0.3,0-0.5-0.1-0.6-0.1c-0.1,0-0.1-0.1-0.1-0.2c0-0.1,0-0.1,0.1-0.2c0-0.1,0.1-0.1,0.1-0.1h0.5c0.3,0,0.6,0,1,0.1
		c0.4,0,0.7,0.1,0.8,0.1c0.1,0,0.4,0,0.6,0c0.3,0,0.5,0,0.6,0c0.6,0,1.4,0,2.6-0.1c1.1,0,2-0.1,2.7-0.1h1.3c0.6,0,1,0,1.3,0.1
		c0.2,0,0.3,0.2,0.4,0.4c0,0.2,0,0.4,0,0.7c0,0.3,0,0.5,0,0.7c0,0.1,0,0.3,0,0.5c0,0.3,0,0.5,0,0.7v0.2c-0.1,0.1-0.2,0.2-0.2,0.2
		c0,0,0,0-0.1,0c0,0-0.1,0-0.1,0c-0.1,0-0.1-0.3-0.3-0.7c-0.1-0.5-0.3-0.8-0.4-1.1c-0.6-0.7-1.7-1.1-3.4-1.1c-0.6,0-1.2,0-1.8,0.1
		c-0.4,0-0.7,0.1-0.8,0.3c-0.1,0.2-0.2,0.5-0.2,0.9v5.5c0.9-0.1,1.5-0.1,1.9-0.2c0.4-0.1,0.8-0.3,1.1-0.6c0.3-0.2,0.4-0.5,0.5-0.7
		c0.1-0.2,0.2-0.5,0.2-0.8c0-0.3,0.1-0.6,0.2-0.8c0.1-0.1,0.1-0.1,0.2-0.1c0.1,0,0.1,0,0.2,0.1c0.1,0.1,0.1,0.1,0.1,0.2V38
		c0,0.2,0,0.6,0,1.1c0,0.5,0,0.9,0,1.1v0.2c0,0.1,0,0.4,0,1.1c0,0.7,0,1.2,0,1.4v0.5c0,0,0,0.1-0.1,0.1c-0.1,0-0.1,0.1-0.1,0.1
		c-0.1,0-0.1-0.1-0.2-0.2c-0.1-0.1-0.1-0.4-0.2-0.7c-0.1-0.3-0.2-0.5-0.3-0.7c-0.1-0.2-0.2-0.4-0.4-0.5c-0.6-0.4-1.4-0.6-2.5-0.6
		h-0.6V44.8z"/>
	<path class="st0" d="M102.8,45.8V34.5c-0.2-0.5-0.8-0.8-1.7-0.9c-0.2,0-0.3,0-0.5-0.1c-0.1-0.1-0.2-0.1-0.2-0.2c0,0,0-0.1,0.1-0.1
		c0.1-0.1,0.1-0.1,0.2-0.1h3.8c0.3,0,0.5,0,0.7,0.1c0.1,0.1,0.3,0.2,0.3,0.5l5,11.6l5-11.8c0.1-0.3,0.4-0.4,0.6-0.4c0.2,0,0.6,0,1,0
		c0.5,0,0.8,0,1.1,0c0,0,0.2,0,0.5,0c0.3,0,0.5,0,0.7,0c0.6,0,0.9,0.1,0.9,0.3c0,0.1-0.3,0.2-0.8,0.3c-0.5,0.1-0.9,0.2-1.1,0.4
		c-0.4,0.4-0.5,1-0.5,2v10.2c0,0.8,0.1,1.3,0.2,1.5c0.1,0.3,0.5,0.4,0.9,0.5c0.5,0.1,0.8,0.2,0.9,0.2c0.1,0,0.1,0.1,0.1,0.2
		c0,0,0,0.1-0.1,0.1c-0.1,0.1-0.1,0.1-0.2,0.1c0,0-0.1,0-0.2,0c-0.1,0-0.2,0-0.2,0c-0.3,0-0.7,0-1.4-0.1c-0.7,0-1.1-0.1-1.3-0.1
		c-0.1,0-0.5,0-1.3,0.1c-0.8,0-1.3,0.1-1.6,0.1c-0.1,0-0.2,0-0.3,0c-0.1,0-0.2,0-0.2,0c-0.2,0-0.3,0-0.3-0.1c0,0,0-0.1,0.1-0.2
		c0.1-0.1,0.2-0.1,0.2-0.1c0.8-0.1,1.4-0.3,1.6-0.6s0.4-0.8,0.4-1.6V35.3l-5.6,13.1c0,0.1-0.1,0.2-0.2,0.2c-0.1,0.1-0.2,0.1-0.2,0.1
		c-0.1,0-0.1-0.1-0.2-0.3l-5.6-13.4v10.7c0,0.5,0,0.9,0.1,1.2c0.1,0.3,0.2,0.6,0.5,0.8c0.2,0.2,0.4,0.3,0.5,0.3
		c0.2,0.1,0.3,0.1,0.6,0.1c0.2,0,0.4,0.1,0.5,0.1c0.1,0.1,0.1,0.2,0.1,0.2c0,0,0,0.1-0.1,0.2c-0.2,0.1-0.4,0.1-0.6,0.1
		c-0.2,0-0.5,0-0.8,0c-0.4,0-0.6,0-0.6,0c-0.2,0-0.5,0-1,0s-0.8,0-1,0c-0.1,0-0.4,0-0.9-0.1c-0.1,0-0.1,0-0.2-0.1
		c-0.1,0-0.1-0.1-0.1-0.1c0,0,0-0.1,0.1-0.2c0.1-0.1,0.1-0.1,0.2-0.1c0.1,0,0.3-0.1,0.6-0.1c0.3,0,0.5-0.1,0.6-0.2
		c0.2-0.1,0.3-0.2,0.4-0.4c0.2-0.3,0.4-0.8,0.4-1.5V45.8z"/>
	<path class="st0" d="M128.9,41.5v4.8c0,0.5,0,0.9,0.1,1.2c0.1,0.3,0.2,0.5,0.3,0.6s0.4,0.2,0.6,0.3c0.3,0.1,0.6,0.1,1.1,0.2
		c0.1,0,0.1,0.1,0.1,0.3c0,0.1-0.1,0.2-0.2,0.2c0,0-0.1,0-0.2,0c-0.1,0-0.2,0-0.3,0c-0.3,0-0.8,0-1.5-0.1c-0.7,0-1.1-0.1-1.3-0.1
		c-0.2,0-0.6,0-1.4,0.1c-0.8,0-1.3,0.1-1.6,0.1c0,0-0.1,0-0.1,0c-0.1,0-0.1,0-0.1,0c-0.2,0-0.3-0.1-0.3-0.2c0-0.1,0-0.1,0.1-0.2
		c0.1-0.1,0.1-0.1,0.2-0.1c0.8-0.1,1.3-0.3,1.6-0.6c0.3-0.3,0.4-0.8,0.4-1.7V35.6c0-0.7-0.1-1.2-0.3-1.5c-0.2-0.3-0.7-0.5-1.3-0.5
		c-0.1,0-0.2,0-0.4-0.1c-0.2,0-0.3-0.1-0.3-0.2l0.1-0.1c0.1-0.1,0.4-0.1,0.8-0.1c0.3,0,0.5,0,0.8,0c0.3,0,0.4,0,0.4,0
		c0.1,0,0.2,0,0.4,0c0.2,0,0.3,0,0.4,0c0.3,0,0.9,0,1.6,0c0.7,0,1.3,0,1.6,0c0.9,0,1.7,0,2.5,0.1c0.7,0.1,1.4,0.4,2,0.7
		c0.6,0.4,1.1,0.8,1.4,1.4c0.4,0.6,0.5,1.2,0.5,1.9c0,1.6-0.6,2.7-1.9,3.3c-1.3,0.7-2.8,1-4.6,1c-0.2,0-0.4,0-0.7-0.1
		C129.3,41.5,129.1,41.5,128.9,41.5z M128.9,40.9c0.2,0,0.4,0,0.8,0.1c0.3,0,0.6,0.1,0.8,0.1c0.2,0,0.7-0.1,1.3-0.2
		c0.8-0.2,1.3-0.6,1.7-1.2c0.3-0.7,0.5-1.4,0.5-2.3v-0.8c-0.3-2-1.5-2.9-3.7-2.9c-0.4,0-0.7,0-1,0.2c-0.2,0.1-0.4,0.3-0.4,0.7V40.9z
		"/>
	<path class="st0" d="M144.1,45.4c0,0.1,0,0.1,0,0.2c0,0.1,0,0.2,0,0.2c0,0.4,0.1,0.8,0.3,1.2c0.2,0.4,0.5,0.7,0.8,0.8
		c0.7,0.3,1.6,0.4,2.5,0.4c0.8,0,1.6-0.1,2.3-0.3c1-0.3,1.7-0.8,2.1-1.5c0.1-0.2,0.2-0.4,0.3-0.8c0.1-0.4,0.2-0.7,0.3-0.9
		c0.1-0.1,0.2-0.1,0.2-0.1c0.2,0,0.2,0.2,0.2,0.5l0,3.1c0,0.4-0.1,0.6-0.4,0.6h-0.4c-0.3,0-0.7,0-1.3-0.1c-0.6,0-1-0.1-1.2-0.1
		c-0.6,0-1.6,0-2.8,0c-1.2,0-2.2,0-2.8,0h-2.3c-0.2,0-0.5,0-0.9,0.1c-0.4,0-0.7,0.1-0.9,0.1c0,0-0.1,0-0.2,0c-0.1,0-0.2,0-0.3,0
		c-0.2,0-0.3-0.1-0.3-0.2c0-0.1,0-0.2,0.1-0.3c0.1,0,0.3-0.1,0.6-0.1c0.4-0.1,0.6-0.1,0.6-0.1c0.4-0.1,0.6-0.4,0.8-0.7
		c0.1-0.3,0.2-0.8,0.2-1.3V35.4c0-0.7-0.1-1.2-0.4-1.4c-0.3-0.2-0.8-0.4-1.5-0.5c-0.1,0-0.2,0-0.3-0.1c-0.1-0.1-0.1-0.1-0.1-0.2
		c0,0,0-0.1,0.1-0.1c0,0,0.1-0.1,0.2-0.1h0.4c0.3,0,0.8,0,1.6,0.1c0.7,0,1.2,0.1,1.5,0.1h0.3c-0.1,0,0.2,0,0.7,0c0.5,0,1,0,1.3,0
		c0.7,0,1,0,1.1,0.1v0.1c0,0.1-0.1,0.2-0.4,0.2c-0.7,0-1.2,0.2-1.4,0.5c-0.3,0.3-0.4,0.8-0.4,1.4c0,0,0,0,0,0.1c0,0,0,0.1,0,0.1
		V45.4z"/>
	<path class="st0" d="M161.6,44.8c0,0,0,0.1,0,0.1c0,0.1,0,0.1,0,0.1c0,0.9,0.1,1.7,0.3,2.2c0.2,0.5,0.8,0.8,1.6,0.9
		c0.8,0.1,1.4,0.2,1.9,0.2c0.7,0,1.4-0.1,2-0.3c0.6-0.2,1.1-0.5,1.4-0.9c0.2-0.3,0.4-0.7,0.6-1.2c0.2-0.5,0.3-0.8,0.4-0.8h0.1
		c0.1,0.1,0.2,0.4,0.2,1.1c0,0.3,0,0.8-0.1,1.3s-0.1,0.8-0.1,0.8c0,0.2,0,0.3-0.1,0.4c-0.1,0.1-0.2,0.1-0.4,0.1c-0.4,0-0.8,0-1-0.1
		c-0.6,0-1.4,0-2.6,0c-1.2,0-2,0-2.6,0c-2.1,0-3.6,0-4.7,0.1c-0.1,0-0.3,0-0.6,0s-0.5,0-0.6,0c-0.1,0-0.1,0-0.2,0
		c-0.1,0-0.1,0-0.2,0c-0.1,0-0.1-0.1-0.1-0.2c0-0.1,0-0.2,0.1-0.3c0.1-0.1,0.3-0.1,0.6-0.1c0.3,0,0.5-0.1,0.7-0.1
		c0.4-0.2,0.6-0.4,0.7-0.7c0.1-0.3,0.1-0.8,0.1-1.3V35.6c0-0.5-0.1-1-0.2-1.3c-0.1-0.3-0.4-0.5-0.8-0.6c-0.1,0-0.2,0-0.6-0.1
		c-0.3,0-0.5-0.1-0.6-0.1c-0.1,0-0.1-0.1-0.1-0.2c0-0.1,0-0.1,0.1-0.2c0-0.1,0.1-0.1,0.1-0.1h0.5c0.3,0,0.6,0,1,0.1
		c0.4,0,0.7,0.1,0.8,0.1c0.1,0,0.4,0,0.6,0c0.3,0,0.5,0,0.6,0c0.6,0,1.4,0,2.6-0.1c1.1,0,2-0.1,2.7-0.1h1.3c0.6,0,1,0,1.3,0.1
		c0.2,0,0.3,0.2,0.4,0.4c0,0.2,0,0.4,0,0.7c0,0.3,0,0.5,0,0.7c0,0.1,0,0.3,0,0.5c0,0.3,0,0.5,0,0.7v0.2c-0.1,0.1-0.2,0.2-0.2,0.2
		c0,0,0,0-0.1,0c0,0-0.1,0-0.1,0c-0.1,0-0.1-0.3-0.3-0.7c-0.1-0.5-0.3-0.8-0.4-1.1c-0.6-0.7-1.7-1.1-3.4-1.1c-0.6,0-1.2,0-1.8,0.1
		c-0.4,0-0.7,0.1-0.8,0.3c-0.1,0.2-0.2,0.5-0.2,0.9v5.5c0.9-0.1,1.5-0.1,1.9-0.2c0.4-0.1,0.8-0.3,1.1-0.6c0.3-0.2,0.4-0.5,0.5-0.7
		c0.1-0.2,0.2-0.5,0.2-0.8c0-0.3,0.1-0.6,0.2-0.8c0.1-0.1,0.1-0.1,0.2-0.1c0.1,0,0.1,0,0.2,0.1c0.1,0.1,0.1,0.1,0.1,0.2V38
		c0,0.2,0,0.6,0,1.1c0,0.5,0,0.9,0,1.1v0.2c0,0.1,0,0.4,0,1.1c0,0.7,0,1.2,0,1.4v0.5c0,0,0,0.1-0.1,0.1c-0.1,0-0.1,0.1-0.1,0.1
		c-0.1,0-0.1-0.1-0.2-0.2c-0.1-0.1-0.1-0.4-0.2-0.7c-0.1-0.3-0.2-0.5-0.3-0.7s-0.2-0.4-0.4-0.5c-0.6-0.4-1.4-0.6-2.5-0.6h-0.6V44.8z
		"/>
	<path class="st0" d="M182.5,46.2c0,0,0,0.1,0,0.1c0,0.1,0,0.1,0,0.1c0,0.5,0,0.8,0.2,1.1c0.1,0.2,0.2,0.4,0.4,0.5
		c0.2,0.1,0.4,0.2,0.7,0.2c0.3,0,0.6,0.1,1.1,0.2c0.1,0,0.2,0.1,0.2,0.2c0,0.1,0,0.2-0.1,0.2c0,0-0.1,0-0.2,0c-0.1,0-0.2,0-0.3,0
		c-0.3,0-0.7,0-1.4-0.1c-0.6,0-1-0.1-1-0.1c-0.4,0-1,0-1.8,0c-0.8,0-1.3,0-1.7,0c0,0-0.1,0-0.2,0c-0.1,0-0.2,0-0.2,0
		c0,0-0.1,0-0.1,0c-0.1,0-0.1,0-0.1,0c-0.2,0-0.3-0.1-0.3-0.2c0-0.1,0-0.1,0.1-0.2c0.1-0.1,0.2-0.1,0.2-0.1c0.6-0.1,1-0.2,1.3-0.3
		s0.5-0.3,0.7-0.6c0.1-0.3,0.2-0.7,0.2-1.3V34.4c0-0.5-0.4-0.8-1.2-0.8h-1.8c-1.2,0-2.1,0.1-2.6,0.4c-0.3,0.2-0.5,0.4-0.6,0.6
		c-0.1,0.2-0.2,0.6-0.3,1.1c-0.1,0.5-0.1,0.7-0.1,0.7c0,0,0,0.1-0.1,0.1c0,0-0.1,0-0.1,0c-0.1,0-0.2-0.1-0.2-0.4v-2.7
		c0-0.4,0.2-0.6,0.7-0.6c0.5,0,0.8,0,1,0.1c1.4,0.1,3.6,0.1,6.5,0.1c2.9,0,5.1,0,6.6-0.1c0.2,0,0.6-0.1,1.1-0.1
		c0.5,0,0.7,0.2,0.7,0.6v2.7c0,0.1,0,0.2-0.1,0.3c-0.1,0.1-0.1,0.1-0.2,0.1c-0.1,0-0.1-0.1-0.1-0.3c-0.1-0.6-0.2-1.1-0.3-1.4
		s-0.4-0.6-0.7-0.8c-0.5-0.3-1.5-0.5-2.9-0.5c-0.2,0-0.5,0-0.9,0c-0.4,0-0.7,0-0.8,0c-0.3,0-0.6,0.1-0.7,0.2
		c-0.2,0.1-0.2,0.3-0.2,0.6V46.2z"/>
	<path class="st0" d="M192.3,41c0-1.5,0.4-3,1.2-4.2c0.8-1.3,1.9-2.3,3.2-3c1.4-0.7,2.8-1.1,4.3-1.1c0.1,0,0.3,0,0.5,0
		c0.2,0,0.4,0,0.5,0c1.1,0.1,2.1,0.4,3,0.8c0.9,0.5,1.7,1,2.4,1.8c0.7,0.7,1.2,1.6,1.6,2.5c0.4,0.9,0.6,1.9,0.6,3V41
		c0,1.6-0.4,3-1.2,4.3c-0.8,1.3-1.8,2.2-3.1,2.9c-1.3,0.7-2.8,1.1-4.3,1.1c-1.5,0-2.9-0.3-4.3-1c-1.3-0.7-2.4-1.7-3.2-2.9
		c-0.8-1.2-1.2-2.6-1.2-4.2L192.3,41z M195.3,40.9c0,1.3,0.2,2.5,0.6,3.7c0.4,1.2,1,2.2,1.9,3c0.9,0.8,1.9,1.2,3.2,1.2
		c1,0,1.9-0.3,2.7-0.8c0.8-0.5,1.5-1.2,2-2.1c0.7-1.3,1.1-2.9,1.1-4.9c0-1.3-0.2-2.5-0.6-3.7c-0.4-1.2-1-2.1-1.8-2.9
		c-0.8-0.8-1.9-1.2-3.2-1.2H201c-1,0-1.8,0.2-2.5,0.7c-0.7,0.5-1.3,1.1-1.8,1.8c-0.5,0.8-0.8,1.6-1,2.5
		C195.4,39.1,195.3,40,195.3,40.9z"/>
	<path class="st0" d="M216,45.8c0,0.7,0.1,1.2,0.2,1.6c0.2,0.4,0.3,0.6,0.6,0.7c0.2,0.1,0.5,0.2,0.8,0.2c0.3,0,0.5,0.1,0.6,0.2
		c0,0,0.1,0.1,0.1,0.2c0,0.1,0,0.2-0.1,0.2c-0.1,0-0.3,0.1-0.6,0.1c-0.2,0-0.5,0-1,0s-0.7,0-0.8,0c-0.2,0-0.4,0-0.8,0s-0.7,0-0.9,0
		c-0.1,0-0.2,0-0.3,0c-0.1,0-0.2,0-0.3,0c-0.1,0-0.1,0-0.2-0.1c-0.1-0.1-0.1-0.1-0.1-0.1c0,0,0.1-0.1,0.2-0.2
		c0.1-0.1,0.3-0.1,0.5-0.1c0.2,0,0.4-0.1,0.6-0.1c0.2-0.1,0.3-0.2,0.5-0.4c0.3-0.3,0.4-0.8,0.4-1.7V34.8c-0.5-0.8-1.1-1.2-1.8-1.2
		c-0.1,0-0.3,0-0.5-0.1c-0.2-0.1-0.3-0.1-0.3-0.2c0-0.1,0.1-0.2,0.3-0.3c0,0,0.1,0,0.3,0c0.1,0,0.2,0,0.3,0c0.3,0,0.6,0,1,0
		c0.4,0,0.7,0,0.9,0h0.9c0.5,0,0.8,0.1,1,0.4l9.7,12.2v-9.8c0-1.6-0.6-2.4-1.9-2.4H225c-0.1,0-0.1,0-0.2-0.1
		c-0.1-0.1-0.1-0.1-0.1-0.1l0.1-0.1c0-0.1,0.3-0.1,0.7-0.1c0.3,0,0.7,0,1.2,0c0.5,0,0.7,0,0.7,0c0.1,0,0.4,0,0.8,0
		c0.5,0,0.8,0,1.1,0h0.5c0.1,0,0.1,0.1,0.1,0.3c0,0.1,0,0.2-0.1,0.2c-0.2,0.1-0.4,0.1-0.6,0.2c-0.3,0-0.5,0.1-0.6,0.2
		c-0.2,0.1-0.3,0.2-0.4,0.3c-0.3,0.3-0.4,0.8-0.4,1.5c0,0,0,0.1,0,0.2c0,0.1,0,0.1,0,0.2v12.7c0,0.5-0.1,0.7-0.4,0.7
		c-0.2,0-0.5-0.2-0.8-0.6L216,35.6V45.8z"/>
	<path class="st0" d="M57.4,36.5l-35.1,6.2l6.5-2.8c0.1-0.1,0.2-0.2,0.2-0.4c-0.1-0.1-0.2-0.2-0.4-0.2l-6.5,2.8l31.5-23.5
		c0.1-0.1,0.1-0.3,0.1-0.4c-0.1-0.1-0.3-0.1-0.4-0.1L21.7,41.7l5.4-6.4c0.1-0.1,0.1-0.3,0-0.4c-0.1-0.1-0.3-0.1-0.4,0l-5.4,6.5
		L38.9,6.1C39,6,39,5.9,38.8,5.8c-0.1-0.1-0.3,0-0.3,0.1L20.8,41.1l2.2-9.4c0-0.2-0.1-0.3-0.2-0.4c-0.2,0-0.3,0.1-0.4,0.2l-2.2,9.4
		V0.8c0-0.2-0.1-0.3-0.3-0.3c-0.2,0-0.3,0.1-0.3,0.3v40.1l-2.5-10.6c0-0.2-0.2-0.3-0.4-0.2c-0.2,0-0.3,0.2-0.2,0.4L19.1,41l-0.4-0.7
		c-0.1-0.1-0.2-0.2-0.4-0.1c-0.1,0.1-0.2,0.2-0.1,0.4l0.4,0.7l-8-9.5c-0.1-0.1-0.3-0.1-0.4,0c-0.1,0.1-0.1,0.3,0,0.4l8,9.5l-1-0.7
		c-0.1-0.1-0.3-0.1-0.4,0.1c-0.1,0.1-0.1,0.3,0.1,0.4l1,0.7L4.7,36.5c-0.2-0.1-0.3,0-0.4,0.2c-0.1,0.1,0,0.3,0.2,0.4l13.1,5.6
		l-1.4-0.2c-0.2,0-0.3,0.1-0.3,0.2c0,0.2,0.1,0.3,0.2,0.3l1.4,0.2l-16.5,1c-0.2,0-0.3,0.1-0.3,0.3c0,0.2,0.1,0.3,0.3,0.3
		c0,0,0,0,0,0l16.5-1l-1.6,0.5c-0.2,0-0.2,0.2-0.2,0.4c0,0.1,0.2,0.2,0.3,0.2c0,0,0.1,0,0.1,0l1.6-0.5L2,53.4
		c-0.1,0.1-0.2,0.3-0.1,0.4C1.9,53.9,2,54,2.1,54c0.1,0,0.1,0,0.1,0l15.7-9.1l-1.5,1.4c-0.1,0.1-0.1,0.3,0,0.4
		c0.1,0.1,0.1,0.1,0.2,0.1c0.1,0,0.1,0,0.2-0.1l1.5-1.4L7,62.5C7,62.6,7,62.8,7.1,62.9c0,0,0.1,0,0.2,0c0.1,0,0.2,0,0.2-0.1
		l11.3-17.2l-0.9,2.6c-0.1,0.2,0,0.3,0.2,0.4c0,0,0.1,0,0.1,0c0.1,0,0.2-0.1,0.3-0.2l0.9-2.6l-2.7,23.1c0,0.2,0.1,0.3,0.3,0.3
		c0,0,0,0,0,0c0.1,0,0.3-0.1,0.3-0.3L20,45.9l0.4,3.4c0,0.1,0.1,0.3,0.3,0.3c0,0,0,0,0,0c0.2,0,0.3-0.2,0.3-0.3l-0.4-3.4l9.1,24.8
		c0,0.1,0.2,0.2,0.3,0.2c0,0,0.1,0,0.1,0c0.2-0.1,0.2-0.2,0.2-0.4l-9.1-24.8l2.2,3.4c0.1,0.1,0.2,0.1,0.2,0.1c0.1,0,0.1,0,0.2,0
		c0.1-0.1,0.2-0.3,0.1-0.4l-2.2-3.4l21.6,20.3c0.1,0.1,0.1,0.1,0.2,0.1c0.1,0,0.2,0,0.2-0.1c0.1-0.1,0.1-0.3,0-0.4L22,44.9l4.4,2.6
		c0,0,0.1,0,0.1,0c0.1,0,0.2-0.1,0.3-0.1c0.1-0.1,0-0.3-0.1-0.4l-4.4-2.6L54.5,54c0,0,0.1,0,0.1,0c0.1,0,0.2-0.1,0.3-0.2
		c0-0.2,0-0.3-0.2-0.4l-32.2-9.6l6,0.3c0,0,0,0,0,0c0.2,0,0.3-0.1,0.3-0.3c0-0.2-0.1-0.3-0.3-0.3l-6.1-0.4L57.5,37
		c0.1,0,0.2-0.2,0.2-0.3C57.7,36.5,57.6,36.4,57.4,36.5z"/>
	<g>
		<path class="st0" d="M67.9,66.4v-9.4h5.8v0.4h-5.3v4h5.2v0.4h-5.2v4.6H67.9z"/>
		<path class="st0" d="M80,61.7c0-2.7,1.7-4.9,4.5-4.9c2.7,0,4.5,2.2,4.5,4.9c0,2.7-1.8,4.9-4.5,4.9C81.8,66.5,80,64.4,80,61.7z
			 M88.5,61.7c0-2.6-1.6-4.5-4-4.5c-2.4,0-4,1.9-4,4.5c0,2.6,1.5,4.5,4,4.5C87,66.1,88.5,64.2,88.5,61.7z"/>
		<path class="st0" d="M96.1,62.8v-5.9h0.5v5.9c0,2.1,1.1,3.3,3.1,3.3c2,0,3.1-1.2,3.1-3.3v-5.9h0.5v5.9c0,2.3-1.2,3.8-3.5,3.8
			C97.4,66.5,96.1,65.1,96.1,62.8z"/>
		<path class="st0" d="M117.5,66.4l-6.4-8.7v8.7h-0.5v-9.4h0.5l6.4,8.6v-8.6h0.5v9.4H117.5z"/>
		<path class="st0" d="M125.4,66.4v-9.4h2.8c2.9,0,4.7,2.2,4.7,4.7c0,2.5-1.8,4.7-4.7,4.7H125.4z M132.4,61.7c0-2.4-1.5-4.3-4.2-4.3
			h-2.4v8.6h2.4C130.8,65.9,132.4,64,132.4,61.7z"/>
		<path class="st0" d="M146.4,66.4l-1-2.5h-5.3l-1,2.5h-0.5l3.9-9.4h0.5l3.9,9.4H146.4z M142.7,57.4l-2.5,6h4.9L142.7,57.4z"/>
		<path class="st0" d="M154.9,66.4v-9h-3.2v-0.4h6.8v0.4h-3.2v9H154.9z"/>
		<path class="st0" d="M165.3,66.4v-9.4h0.5v9.4H165.3z"/>
		<path class="st0" d="M172.9,61.7c0-2.7,1.7-4.9,4.5-4.9c2.7,0,4.5,2.2,4.5,4.9c0,2.7-1.8,4.9-4.5,4.9
			C174.6,66.5,172.9,64.4,172.9,61.7z M181.3,61.7c0-2.6-1.6-4.5-4-4.5c-2.4,0-4,1.9-4,4.5c0,2.6,1.5,4.5,4,4.5
			C179.8,66.1,181.3,64.2,181.3,61.7z"/>
		<path class="st0" d="M195.8,66.4l-6.4-8.7v8.7H189v-9.4h0.5l6.4,8.6v-8.6h0.5v9.4H195.8z"/>
	</g>
</g>
</svg>
