<?xml version="1.0" encoding="utf-8"?>
<!-- Generator: Adobe Illustrator 15.0.2, SVG Export Plug-In . SVG Version: 6.00 Build 0)  -->
<!DOCTYPE svg PUBLIC "-//W3C//DTD SVG 1.1//EN" "http://www.w3.org/Graphics/SVG/1.1/DTD/svg11.dtd">
<svg version="1.1" id="Calque_1" xmlns="http://www.w3.org/2000/svg" xmlns:xlink="http://www.w3.org/1999/xlink" x="0px" y="0px"
	 width="900px" height="720px" viewBox="0 0 900 720" enable-background="new 0 0 900 720" xml:space="preserve">
<rect x="720" fill="#878787" width="180" height="720"/>
<rect x="767.812" y="336" opacity="0.85" fill="#FFFFFF" width="34.335" height="143.24"/>
<rect fill="#E1001A" width="720" height="720"/>
<g>
	<path fill="none" d="M81.163,367.166c-4.257,0-7.159,0.194-12.189,0.776v40.535c4.644,0.192,6.772,0.387,9.867,0.387
		c17.413,0,26.12-7.565,26.12-21.332C104.961,376.089,97.415,367.166,81.163,367.166z"/>
	<polygon fill="none" points="179.605,259.542 209.822,259.542 194.811,221.082 	"/>
	<path fill="none" d="M194.812,365.81c-5.03,0-8.126,0.192-12.771,0.97v39.175c4.258,0.388,6.579,0.582,10.449,0.582
		c15.671,0,25.731-7.562,25.731-21.914C218.223,372.79,208.937,365.81,194.812,365.81z"/>
	<path fill="#FFFFFF" d="M546.871,394.791c-17.419-7.401-24.629-10.467-24.629-19.479c0-5.271,4.28-10.901,16.293-10.901
		c8.704,0,19.656,4.634,27.004,8.972l0.513,0.302l0.252-0.539l12.572-26.981l0.207-0.444l-0.421-0.249
		c-8.46-5.036-22.287-11.038-40.127-11.038c-34.669,0-50.459,21.492-50.459,41.462c0,19.148,11.121,32.954,34.003,42.199
		c21.266,8.564,25.008,13.479,25.008,20.638c0,7.655-5.511,11.87-15.519,11.87c-12.231,0-26.349-4.69-37.764-12.544l-0.526-0.363
		l-0.271,0.58l-12.836,27.564l-0.195,0.423l0.388,0.258c14.545,9.603,34.265,15.808,50.238,15.808
		c15.958,0,29.234-4.756,38.396-13.755c8.151-8.007,12.642-19.016,12.642-31.005c0-9.878-2.349-17.531-7.393-24.089
		C568.814,406.416,559.858,400.303,546.871,394.791z"/>
	<polygon fill="#FFFFFF" points="684.459,336.76 594.685,336.76 594.144,336.76 594.144,337.301 594.144,479.46 594.144,480 
		594.685,480 684.459,480 685,480 685,479.46 685,449.398 685,448.856 684.459,448.856 628.116,448.856 628.116,422.204 
		678.347,422.204 678.889,422.204 678.889,421.665 678.889,392.961 678.889,392.42 678.347,392.42 628.116,392.42 628.116,368.095 
		684.459,368.095 685,368.095 685,367.556 685,337.301 685,336.76 	"/>
	<polygon fill="#FFFFFF" points="271.646,336.76 271.105,336.76 271.105,337.301 271.105,479.46 271.105,480 271.646,480 
		361.422,480 361.963,480 361.963,479.46 361.963,449.398 361.963,448.856 361.422,448.856 305.079,448.856 305.079,422.204 
		355.31,422.204 355.851,422.204 355.851,421.665 355.851,392.961 355.851,392.42 355.31,392.42 305.079,392.42 305.079,368.095 
		361.422,368.095 361.963,368.095 361.963,367.556 361.963,337.301 361.963,336.76 361.422,336.76 	"/>
	<path fill="#FFFFFF" d="M440.313,394.791c-17.418-7.401-24.629-10.467-24.629-19.479c0-5.271,4.28-10.901,16.293-10.901
		c8.704,0,19.656,4.634,27.004,8.972l0.513,0.302l0.252-0.539l12.572-26.981l0.207-0.444l-0.421-0.249
		c-8.459-5.036-22.287-11.038-40.127-11.038c-34.668,0-50.459,21.492-50.459,41.462c0,19.148,11.122,32.954,34.003,42.199
		c21.266,8.564,25.008,13.479,25.008,20.638c0,7.655-5.51,11.87-15.518,11.87c-12.232,0-26.35-4.69-37.765-12.544l-0.526-0.363
		l-0.271,0.58l-12.836,27.564l-0.196,0.423l0.39,0.258c14.545,9.603,34.265,15.808,50.237,15.808
		c15.958,0,29.235-4.756,38.397-13.755c8.151-8.007,12.641-19.016,12.641-31.005c0-9.878-2.349-17.531-7.391-24.089
		C462.257,406.416,453.302,400.303,440.313,394.791z"/>
	<path fill="#FFFFFF" d="M122.28,350.465c-11.268-9.6-27.612-14.675-47.27-14.675c-11.769,0-25.067,0.784-39.526,2.33L35,338.171
		v0.486V479.46V480h0.541h32.892h0.541v-0.54v-41.908c0.633,0.026,1.239,0.054,1.829,0.082c3.24,0.15,6.04,0.281,9.819,0.281
		c35.778,0,58.005-19.529,58.005-50.966C138.627,372.193,132.974,359.574,122.28,350.465z M78.841,408.864
		c-3.095,0-5.224-0.194-9.867-0.387v-40.535c5.03-0.582,7.933-0.776,12.189-0.776c16.252,0,23.798,8.923,23.798,20.366
		C104.961,401.299,96.254,408.864,78.841,408.864z"/>
	<path fill="#FFFFFF" d="M229.882,425.822c14.363-8.785,22.587-24.192,22.587-42.364c0-30.295-22.621-47.668-62.066-47.668
		c-14.7,0-27.608,0.719-41.854,2.33l-0.479,0.056v0.481V479.46V480h0.541h32.891h0.541v-0.54v-45.982
		c0.876,0.038,1.684,0.075,2.455,0.11c3.065,0.142,5.487,0.254,9.193,0.254c1.787,0,3.479,0,5.3-0.162l24.017,46.03l0.152,0.29
		h0.327h37.343h0.946l-0.481-0.815L229.882,425.822z M192.491,406.536c-3.87,0-6.191-0.194-10.449-0.582v-39.175
		c4.645-0.777,7.74-0.97,12.771-0.97c14.124,0,23.41,6.98,23.41,18.812C218.223,398.974,208.162,406.536,192.491,406.536z"/>
	<polygon fill="#FFFFFF" points="110.758,310.008 111.103,310.008 111.248,309.695 125.249,279.634 125.606,278.866 
		124.759,278.866 68.974,278.866 68.974,167.309 68.974,166.768 68.433,166.768 35.541,166.768 35,166.768 35,167.309 35,309.467 
		35,310.008 35.541,310.008 	"/>
	<path fill="#FFFFFF" d="M197.815,165.916l-0.145-0.312h-0.345h-4.45h-0.346l-0.145,0.312l-66.751,143.323l-0.358,0.769h0.85h33.471
		h0.362l0.139-0.335l10.502-25.46h48.227l10.504,25.46l0.139,0.335h0.361h34.245h0.85l-0.358-0.769L197.815,165.916z
		 M179.605,259.542l15.205-38.46l15.012,38.46H179.605z"/>
</g>
<rect x="720" y="390.16" opacity="0.7" fill="#FFFFFF" width="133.96" height="34.336"/>
<rect x="720" opacity="0.4" fill="#4A4A49" width="20" height="720"/>
</svg>
